<svg width="26" height="26" viewBox="0 0 26 26" fill="none" xmlns="http://www.w3.org/2000/svg">
<path d="M25.4552 9.70719L17.1864 8.51483L13.489 1.07917C13.3974 0.894616 13.2082 0.777832 13.0005 0.777832C12.7927 0.777832 12.6035 0.894616 12.512 1.07917L8.8149 8.51483L0.54614 9.70719C0.34131 9.73674 0.170618 9.87948 0.106336 10.0752C0.0420539 10.2709 0.0958038 10.4861 0.244342 10.6296L6.22692 16.4173L4.81489 24.59C4.77967 24.793 4.86392 24.9981 5.03171 25.1192C5.19986 25.2399 5.42212 25.2558 5.60553 25.1603L13.0001 21.3013L20.3958 25.1603C20.4757 25.2017 20.5625 25.2223 20.6493 25.2223C20.7623 25.2223 20.8745 25.1873 20.9696 25.1192C21.1374 24.9981 21.2213 24.793 21.1864 24.59L19.773 16.4173L25.7563 10.6296C25.9048 10.4861 25.9582 10.2709 25.8943 10.0752C25.8307 9.87948 25.66 9.73674 25.4552 9.70719ZM18.8084 15.8413C18.6798 15.9656 18.6213 16.1444 18.6515 16.32L19.9266 23.6929L13.2543 20.2117C13.0953 20.1292 12.9061 20.1292 12.7474 20.2117L6.0762 23.6929L7.34985 16.32C7.38 16.1444 7.32152 15.9656 7.19296 15.8413L1.79619 10.6202L9.25579 9.54463C9.43302 9.51904 9.58664 9.40838 9.66582 9.24906L13.0012 2.54114L16.337 9.24906C16.4161 9.40838 16.5698 9.51904 16.747 9.54463L24.2066 10.6202L18.8084 15.8413Z" fill="#42196D"/>
</svg>
