<svg width="32" height="36" viewBox="0 0 32 36" fill="none" xmlns="http://www.w3.org/2000/svg">
<path d="M8.94959 14.8728H5.09195C4.73862 14.8728 4.45264 15.164 4.45264 15.5237V19.4485C4.45264 19.8082 4.73862 20.0993 5.09195 20.0993H8.94959C9.30292 20.0993 9.58891 19.8082 9.58891 19.4485V15.5237C9.58891 15.1644 9.3025 14.8728 8.94959 14.8728ZM8.31028 18.798H5.73127V16.175H8.31028V18.798Z" fill="white"/>
<path d="M17.9475 14.8728H14.0885C13.7352 14.8728 13.4492 15.164 13.4492 15.5237V19.4485C13.4492 19.8082 13.7352 20.0993 14.0885 20.0993H17.9475C18.3008 20.0993 18.5868 19.8082 18.5868 19.4485V15.5237C18.5868 15.1644 18.3008 14.8728 17.9475 14.8728ZM17.3081 18.798H14.7279V16.175H17.3081V18.798Z" fill="white"/>
<path d="M8.94959 23.8169H5.09195C4.73862 23.8169 4.45264 24.1085 4.45264 24.4678V28.3951C4.45264 28.7549 4.73862 29.046 5.09195 29.046H8.94959C9.30292 29.046 9.58891 28.7549 9.58891 28.3951V24.4678C9.58891 24.1085 9.3025 23.8169 8.94959 23.8169ZM8.31028 27.7443H5.73127V25.1186H8.31028V27.7443Z" fill="white"/>
<path d="M17.9475 23.8169H14.0885C13.7352 23.8169 13.4492 24.1085 13.4492 24.4678V28.3951C13.4492 28.7549 13.7352 29.046 14.0885 29.046H17.9475C18.3008 29.046 18.5868 28.7549 18.5868 28.3951V24.4678C18.5868 24.1085 18.3008 23.8169 17.9475 23.8169ZM17.3081 27.7443H14.7279V25.1186H17.3081V27.7443Z" fill="white"/>
<path d="M26.6642 23.8169H22.8083C22.4549 23.8169 22.1689 24.1085 22.1689 24.4678V28.3951C22.1689 28.7549 22.4549 29.046 22.8083 29.046H26.6642C27.0175 29.046 27.3035 28.7549 27.3035 28.3951V24.4678C27.3035 24.1085 27.0171 23.8169 26.6642 23.8169ZM26.0249 27.7443H23.4476V25.1186H26.0249V27.7443Z" fill="white"/>
<path d="M31.3598 3.18625H27.4766V2.43167C27.4766 1.09087 26.4055 0 25.0894 0C23.7724 0 22.7009 1.09087 22.7009 2.43167V3.18625H18.3825V2.43167C18.3825 1.09087 17.3115 0 15.9953 0C14.6775 0 13.6055 1.09087 13.6055 2.43167V3.18625H9.28844V2.43167C9.28844 1.09087 8.21779 0 6.90123 0C5.58338 0 4.51146 1.09087 4.51146 2.43167V3.18625H0.639318C0.285988 3.18625 0 3.47741 0 3.83712V35.1138C0 35.4731 0.285988 35.7647 0.639318 35.7647H31.3607C31.714 35.7647 32 35.4731 32 35.1138V3.83712C31.9991 3.47741 31.7132 3.18625 31.3598 3.18625ZM23.9791 2.43167C23.9791 1.80813 24.4769 1.30175 25.089 1.30175C25.7002 1.30175 26.1976 1.80856 26.1976 2.43167V5.76241C26.1976 6.38552 25.7002 6.89233 25.089 6.89233C24.4769 6.89233 23.9791 6.38552 23.9791 5.76241V2.43167ZM15.9949 1.30132C16.6061 1.30132 17.1035 1.80813 17.1035 2.43124V5.76198C17.1035 6.38508 16.6061 6.8919 15.9949 6.8919C15.382 6.8919 14.8837 6.38508 14.8837 5.76198V3.90829C14.8863 3.88442 14.891 3.86142 14.891 3.83669C14.891 3.81196 14.8863 3.78896 14.8837 3.76509V2.43124C14.8837 1.80813 15.3824 1.30132 15.9949 1.30132ZM5.78966 2.43167C5.78966 1.80813 6.28833 1.30175 6.9008 1.30175C7.51199 1.30175 8.00938 1.80856 8.00938 2.43167V5.76241C8.00938 6.38552 7.51199 6.89233 6.9008 6.89233C6.28791 6.89233 5.78966 6.38552 5.78966 5.76241V2.43167ZM30.7205 34.4625H1.27778V4.48757H4.5106V5.76198C4.5106 7.10278 5.58295 8.19365 6.90037 8.19365C8.21652 8.19365 9.28759 7.10278 9.28759 5.76198V4.48757H13.6047V5.76198C13.6047 7.10278 14.677 8.19365 15.9945 8.19365C17.3106 8.19365 18.3817 7.10278 18.3817 5.76198V4.48757H22.7001V5.76198C22.7001 7.10278 23.7715 8.19365 25.0885 8.19365C26.4047 8.19365 27.4758 7.10278 27.4758 5.76198V4.48757H30.7197V34.4625H30.7205Z" fill="white"/>
<path d="M27.372 12.9915L24.1097 17.0851L22.7489 15.7625C22.4936 15.5143 22.0891 15.5238 21.8449 15.7837C21.6011 16.0441 21.6104 16.4559 21.8657 16.7041L23.7279 18.5139C23.8472 18.6298 24.0053 18.694 24.1694 18.694C24.1831 18.694 24.1963 18.6936 24.2099 18.6927C24.3881 18.6814 24.5534 18.5942 24.666 18.4532L28.365 13.812C28.5875 13.533 28.5453 13.123 28.2713 12.8965C27.9972 12.6695 27.5945 12.7125 27.372 12.9915Z" fill="white"/>
</svg>
